<?xml version="1.0" encoding="UTF-8"?>
<!DOCTYPE svg PUBLIC "-//W3C//DTD SVG 1.1//EN" "http://www.w3.org/Graphics/SVG/1.1/DTD/svg11.dtd">
<!--  -->
<!-- Copyright (C) 2018 by David McNaughton -->
<!--  -->
<svg xmlns="http://www.w3.org/2000/svg" xml:space="preserve" width="9.5in" height="11in" version="1.1" style="shape-rendering:geometricPrecision; text-rendering:geometricPrecision; image-rendering:optimizeQuality; fill-rule:evenodd; clip-rule:evenodd"
viewBox="0 0 9500 11000"
 xmlns:xlink="http://www.w3.org/1999/xlink">
 <defs>
  <style type="text/css">
   <![CDATA[
    .str1 {stroke:#009933;stroke-width:7.87402}
    .str0 {stroke:#B3B3B3;stroke-width:3;stroke-dasharray:30.000000 9.000000}
    .fil1 {fill:none}
    .fil2 {fill:#B3B3B3}
    .fil0 {fill:white}
    .fil3 {fill:#009933;fill-opacity:0.301961}
   ]]>
  </style>
 </defs>
 <g id="Paper">
  <metadata id="CorelCorpID_0Corel-Layer"/>
  <rect class="fil0" x="-4" y="-5" width="9500" height="11000"/>
  <line class="fil1 str0" x1="-4" y1="10995" x2="9496" y2= "10995" />
 </g>
 <g id="Star_x0020_Sprokets">
  <metadata id="CorelCorpID_1Corel-Layer"/>
  <g id="_1776113982224">
   <polygon class="fil2" points="245,161 257,171 271,165 279,178 294,177 298,192 313,195 311,210 325,218 319,233 329,244 319,256 325,270 311,278 313,293 298,297 294,312 279,310 271,324 257,317 245,328 234,317 219,324 212,310 196,312 193,297 178,293 179,278 166,270 172,256 162,244 172,233 166,218 179,210 178,195 193,192 196,177 212,178 219,165 234,171 "/>
   <polygon class="fil2" points="245,661 257,671 271,665 279,678 294,677 298,692 313,695 311,710 325,718 319,733 329,744 319,756 325,770 311,778 313,793 298,797 294,812 279,810 271,824 257,817 245,828 234,817 219,824 212,810 196,812 193,797 178,793 179,778 166,770 172,756 162,744 172,733 166,718 179,710 178,695 193,692 196,677 212,678 219,665 234,671 "/>
   <polygon class="fil2" points="245,1161 257,1171 271,1165 279,1178 294,1177 298,1192 313,1195 311,1210 325,1218 319,1233 329,1244 319,1256 325,1270 311,1278 313,1293 298,1297 294,1312 279,1310 271,1324 257,1317 245,1328 234,1317 219,1324 212,1310 196,1312 193,1297 178,1293 179,1278 166,1270 172,1256 162,1244 172,1233 166,1218 179,1210 178,1195 193,1192 196,1177 212,1178 219,1165 234,1171 "/>
   <polygon class="fil2" points="245,1661 257,1671 271,1665 279,1678 294,1677 298,1692 313,1695 311,1710 325,1718 319,1733 329,1744 319,1756 325,1770 311,1778 313,1793 298,1797 294,1812 279,1810 271,1824 257,1817 245,1828 234,1817 219,1824 212,1810 196,1812 193,1797 178,1793 179,1778 166,1770 172,1756 162,1744 172,1733 166,1718 179,1710 178,1695 193,1692 196,1677 212,1678 219,1665 234,1671 "/>
   <polygon class="fil2" points="245,2161 257,2171 271,2165 279,2178 294,2177 298,2192 313,2195 311,2210 325,2218 319,2233 329,2244 319,2256 325,2270 311,2278 313,2293 298,2297 294,2312 279,2310 271,2324 257,2317 245,2328 234,2317 219,2324 212,2310 196,2312 193,2297 178,2293 179,2278 166,2270 172,2256 162,2244 172,2233 166,2218 179,2210 178,2195 193,2192 196,2177 212,2178 219,2165 234,2171 "/>
   <polygon class="fil2" points="245,2661 257,2671 271,2665 279,2678 294,2677 298,2692 313,2695 311,2710 325,2718 319,2733 329,2744 319,2756 325,2770 311,2778 313,2793 298,2797 294,2812 279,2810 271,2824 257,2817 245,2828 234,2817 219,2824 212,2810 196,2812 193,2797 178,2793 179,2778 166,2770 172,2756 162,2744 172,2733 166,2718 179,2710 178,2695 193,2692 196,2677 212,2678 219,2665 234,2671 "/>
   <polygon class="fil2" points="245,3161 257,3171 271,3165 279,3178 294,3177 298,3192 313,3195 311,3210 325,3218 319,3233 329,3244 319,3256 325,3270 311,3278 313,3293 298,3297 294,3312 279,3310 271,3324 257,3317 245,3328 234,3317 219,3324 212,3310 196,3312 193,3297 178,3293 179,3278 166,3270 172,3256 162,3244 172,3233 166,3218 179,3210 178,3195 193,3192 196,3177 212,3178 219,3165 234,3171 "/>
   <polygon class="fil2" points="245,3661 257,3671 271,3665 279,3678 294,3677 298,3692 313,3695 311,3710 325,3718 319,3733 329,3744 319,3756 325,3770 311,3778 313,3793 298,3797 294,3812 279,3810 271,3824 257,3817 245,3828 234,3817 219,3824 212,3810 196,3812 193,3797 178,3793 179,3778 166,3770 172,3756 162,3744 172,3733 166,3718 179,3710 178,3695 193,3692 196,3677 212,3678 219,3665 234,3671 "/>
   <polygon class="fil2" points="245,4161 257,4171 271,4165 279,4178 294,4177 298,4192 313,4195 311,4210 325,4218 319,4233 329,4244 319,4256 325,4270 311,4278 313,4293 298,4297 294,4312 279,4310 271,4324 257,4317 245,4328 234,4317 219,4324 212,4310 196,4312 193,4297 178,4293 179,4278 166,4270 172,4256 162,4244 172,4233 166,4218 179,4210 178,4195 193,4192 196,4177 212,4178 219,4165 234,4171 "/>
   <polygon class="fil2" points="245,4661 257,4671 271,4665 279,4678 294,4677 298,4692 313,4695 311,4710 325,4718 319,4733 329,4744 319,4756 325,4770 311,4778 313,4793 298,4797 294,4812 279,4810 271,4824 257,4817 245,4828 234,4817 219,4824 212,4810 196,4812 193,4797 178,4793 179,4778 166,4770 172,4756 162,4744 172,4733 166,4718 179,4710 178,4695 193,4692 196,4677 212,4678 219,4665 234,4671 "/>
   <polygon class="fil2" points="245,5161 257,5171 271,5165 279,5178 294,5177 298,5192 313,5195 311,5210 325,5218 319,5233 329,5244 319,5256 325,5270 311,5278 313,5293 298,5297 294,5312 279,5310 271,5324 257,5317 245,5328 234,5317 219,5324 212,5310 196,5312 193,5297 178,5293 179,5278 166,5270 172,5256 162,5244 172,5233 166,5218 179,5210 178,5195 193,5192 196,5177 212,5178 219,5165 234,5171 "/>
   <polygon class="fil2" points="245,5661 257,5671 271,5665 279,5678 294,5677 298,5692 313,5695 311,5710 325,5718 319,5733 329,5744 319,5756 325,5770 311,5778 313,5793 298,5797 294,5812 279,5810 271,5824 257,5817 245,5828 234,5817 219,5824 212,5810 196,5812 193,5797 178,5793 179,5778 166,5770 172,5756 162,5744 172,5733 166,5718 179,5710 178,5695 193,5692 196,5677 212,5678 219,5665 234,5671 "/>
   <polygon class="fil2" points="245,6161 257,6171 271,6165 279,6178 294,6177 298,6192 313,6195 311,6210 325,6218 319,6233 329,6244 319,6256 325,6270 311,6278 313,6293 298,6297 294,6312 279,6310 271,6324 257,6317 245,6328 234,6317 219,6324 212,6310 196,6312 193,6297 178,6293 179,6278 166,6270 172,6256 162,6244 172,6233 166,6218 179,6210 178,6195 193,6192 196,6177 212,6178 219,6165 234,6171 "/>
   <polygon class="fil2" points="245,6661 257,6671 271,6665 279,6678 294,6677 298,6692 313,6695 311,6710 325,6718 319,6733 329,6744 319,6756 325,6770 311,6778 313,6793 298,6797 294,6812 279,6810 271,6824 257,6817 245,6828 234,6817 219,6824 212,6810 196,6812 193,6797 178,6793 179,6778 166,6770 172,6756 162,6744 172,6733 166,6718 179,6710 178,6695 193,6692 196,6677 212,6678 219,6665 234,6671 "/>
   <polygon class="fil2" points="245,7161 257,7171 271,7165 279,7178 294,7177 298,7192 313,7195 311,7210 325,7218 319,7233 329,7244 319,7256 325,7270 311,7278 313,7293 298,7297 294,7312 279,7310 271,7324 257,7317 245,7328 234,7317 219,7324 212,7310 196,7312 193,7297 178,7293 179,7278 166,7270 172,7256 162,7244 172,7233 166,7218 179,7210 178,7195 193,7192 196,7177 212,7178 219,7165 234,7171 "/>
   <polygon class="fil2" points="245,7661 257,7671 271,7665 279,7678 294,7677 298,7692 313,7695 311,7710 325,7718 319,7733 329,7744 319,7756 325,7770 311,7778 313,7793 298,7797 294,7812 279,7810 271,7824 257,7817 245,7828 234,7817 219,7824 212,7810 196,7812 193,7797 178,7793 179,7778 166,7770 172,7756 162,7744 172,7733 166,7718 179,7710 178,7695 193,7692 196,7677 212,7678 219,7665 234,7671 "/>
   <polygon class="fil2" points="245,8161 257,8171 271,8165 279,8178 294,8177 298,8192 313,8195 311,8210 325,8218 319,8233 329,8244 319,8256 325,8270 311,8278 313,8293 298,8297 294,8312 279,8310 271,8324 257,8317 245,8328 234,8317 219,8324 212,8310 196,8312 193,8297 178,8293 179,8278 166,8270 172,8256 162,8244 172,8233 166,8218 179,8210 178,8195 193,8192 196,8177 212,8178 219,8165 234,8171 "/>
   <polygon class="fil2" points="245,8661 257,8671 271,8665 279,8678 294,8677 298,8692 313,8695 311,8710 325,8718 319,8733 329,8744 319,8756 325,8770 311,8778 313,8793 298,8797 294,8812 279,8810 271,8824 257,8817 245,8828 234,8817 219,8824 212,8810 196,8812 193,8797 178,8793 179,8778 166,8770 172,8756 162,8744 172,8733 166,8718 179,8710 178,8695 193,8692 196,8677 212,8678 219,8665 234,8671 "/>
   <polygon class="fil2" points="245,9161 257,9171 271,9165 279,9178 294,9177 298,9192 313,9195 311,9210 325,9218 319,9233 329,9244 319,9256 325,9270 311,9278 313,9293 298,9297 294,9312 279,9310 271,9324 257,9317 245,9328 234,9317 219,9324 212,9310 196,9312 193,9297 178,9293 179,9278 166,9270 172,9256 162,9244 172,9233 166,9218 179,9210 178,9195 193,9192 196,9177 212,9178 219,9165 234,9171 "/>
   <polygon class="fil2" points="245,9661 257,9671 271,9665 279,9678 294,9677 298,9692 313,9695 311,9710 325,9718 319,9733 329,9744 319,9756 325,9770 311,9778 313,9793 298,9797 294,9812 279,9810 271,9824 257,9817 245,9828 234,9817 219,9824 212,9810 196,9812 193,9797 178,9793 179,9778 166,9770 172,9756 162,9744 172,9733 166,9718 179,9710 178,9695 193,9692 196,9677 212,9678 219,9665 234,9671 "/>
   <polygon class="fil2" points="245,10161 257,10171 271,10165 279,10178 294,10177 298,10192 313,10195 311,10210 325,10218 319,10233 329,10244 319,10256 325,10270 311,10278 313,10293 298,10297 294,10312 279,10310 271,10324 257,10317 245,10328 234,10317 219,10324 212,10310 196,10312 193,10297 178,10293 179,10278 166,10270 172,10256 162,10244 172,10233 166,10218 179,10210 178,10195 193,10192 196,10177 212,10178 219,10165 234,10171 "/>
   <polygon class="fil2" points="245,10661 257,10671 271,10665 279,10678 294,10677 298,10692 313,10695 311,10710 325,10718 319,10733 329,10744 319,10756 325,10770 311,10778 313,10793 298,10797 294,10812 279,10810 271,10824 257,10817 245,10828 234,10817 219,10824 212,10810 196,10812 193,10797 178,10793 179,10778 166,10770 172,10756 162,10744 172,10733 166,10718 179,10710 178,10695 193,10692 196,10677 212,10678 219,10665 234,10671 "/>
  </g>
  <g id="_1776113978768">
   <polygon class="fil2" points="9245,161 9257,171 9271,165 9279,178 9294,177 9298,192 9313,195 9311,210 9325,218 9319,233 9329,244 9319,256 9325,270 9311,278 9313,293 9298,297 9294,312 9279,310 9271,324 9257,317 9245,328 9234,317 9219,324 9212,310 9196,312 9193,297 9178,293 9179,278 9166,270 9172,256 9162,244 9172,233 9166,218 9179,210 9178,195 9193,192 9196,177 9212,178 9219,165 9234,171 "/>
   <polygon class="fil2" points="9245,661 9257,671 9271,665 9279,678 9294,677 9298,692 9313,695 9311,710 9325,718 9319,733 9329,744 9319,756 9325,770 9311,778 9313,793 9298,797 9294,812 9279,810 9271,824 9257,817 9245,828 9234,817 9219,824 9212,810 9196,812 9193,797 9178,793 9179,778 9166,770 9172,756 9162,744 9172,733 9166,718 9179,710 9178,695 9193,692 9196,677 9212,678 9219,665 9234,671 "/>
   <polygon class="fil2" points="9245,1161 9257,1171 9271,1165 9279,1178 9294,1177 9298,1192 9313,1195 9311,1210 9325,1218 9319,1233 9329,1244 9319,1256 9325,1270 9311,1278 9313,1293 9298,1297 9294,1312 9279,1310 9271,1324 9257,1317 9245,1328 9234,1317 9219,1324 9212,1310 9196,1312 9193,1297 9178,1293 9179,1278 9166,1270 9172,1256 9162,1244 9172,1233 9166,1218 9179,1210 9178,1195 9193,1192 9196,1177 9212,1178 9219,1165 9234,1171 "/>
   <polygon class="fil2" points="9245,1661 9257,1671 9271,1665 9279,1678 9294,1677 9298,1692 9313,1695 9311,1710 9325,1718 9319,1733 9329,1744 9319,1756 9325,1770 9311,1778 9313,1793 9298,1797 9294,1812 9279,1810 9271,1824 9257,1817 9245,1828 9234,1817 9219,1824 9212,1810 9196,1812 9193,1797 9178,1793 9179,1778 9166,1770 9172,1756 9162,1744 9172,1733 9166,1718 9179,1710 9178,1695 9193,1692 9196,1677 9212,1678 9219,1665 9234,1671 "/>
   <polygon class="fil2" points="9245,2161 9257,2171 9271,2165 9279,2178 9294,2177 9298,2192 9313,2195 9311,2210 9325,2218 9319,2233 9329,2244 9319,2256 9325,2270 9311,2278 9313,2293 9298,2297 9294,2312 9279,2310 9271,2324 9257,2317 9245,2328 9234,2317 9219,2324 9212,2310 9196,2312 9193,2297 9178,2293 9179,2278 9166,2270 9172,2256 9162,2244 9172,2233 9166,2218 9179,2210 9178,2195 9193,2192 9196,2177 9212,2178 9219,2165 9234,2171 "/>
   <polygon class="fil2" points="9245,2661 9257,2671 9271,2665 9279,2678 9294,2677 9298,2692 9313,2695 9311,2710 9325,2718 9319,2733 9329,2744 9319,2756 9325,2770 9311,2778 9313,2793 9298,2797 9294,2812 9279,2810 9271,2824 9257,2817 9245,2828 9234,2817 9219,2824 9212,2810 9196,2812 9193,2797 9178,2793 9179,2778 9166,2770 9172,2756 9162,2744 9172,2733 9166,2718 9179,2710 9178,2695 9193,2692 9196,2677 9212,2678 9219,2665 9234,2671 "/>
   <polygon class="fil2" points="9245,3161 9257,3171 9271,3165 9279,3178 9294,3177 9298,3192 9313,3195 9311,3210 9325,3218 9319,3233 9329,3244 9319,3256 9325,3270 9311,3278 9313,3293 9298,3297 9294,3312 9279,3310 9271,3324 9257,3317 9245,3328 9234,3317 9219,3324 9212,3310 9196,3312 9193,3297 9178,3293 9179,3278 9166,3270 9172,3256 9162,3244 9172,3233 9166,3218 9179,3210 9178,3195 9193,3192 9196,3177 9212,3178 9219,3165 9234,3171 "/>
   <polygon class="fil2" points="9245,3661 9257,3671 9271,3665 9279,3678 9294,3677 9298,3692 9313,3695 9311,3710 9325,3718 9319,3733 9329,3744 9319,3756 9325,3770 9311,3778 9313,3793 9298,3797 9294,3812 9279,3810 9271,3824 9257,3817 9245,3828 9234,3817 9219,3824 9212,3810 9196,3812 9193,3797 9178,3793 9179,3778 9166,3770 9172,3756 9162,3744 9172,3733 9166,3718 9179,3710 9178,3695 9193,3692 9196,3677 9212,3678 9219,3665 9234,3671 "/>
   <polygon class="fil2" points="9245,4161 9257,4171 9271,4165 9279,4178 9294,4177 9298,4192 9313,4195 9311,4210 9325,4218 9319,4233 9329,4244 9319,4256 9325,4270 9311,4278 9313,4293 9298,4297 9294,4312 9279,4310 9271,4324 9257,4317 9245,4328 9234,4317 9219,4324 9212,4310 9196,4312 9193,4297 9178,4293 9179,4278 9166,4270 9172,4256 9162,4244 9172,4233 9166,4218 9179,4210 9178,4195 9193,4192 9196,4177 9212,4178 9219,4165 9234,4171 "/>
   <polygon class="fil2" points="9245,4661 9257,4671 9271,4665 9279,4678 9294,4677 9298,4692 9313,4695 9311,4710 9325,4718 9319,4733 9329,4744 9319,4756 9325,4770 9311,4778 9313,4793 9298,4797 9294,4812 9279,4810 9271,4824 9257,4817 9245,4828 9234,4817 9219,4824 9212,4810 9196,4812 9193,4797 9178,4793 9179,4778 9166,4770 9172,4756 9162,4744 9172,4733 9166,4718 9179,4710 9178,4695 9193,4692 9196,4677 9212,4678 9219,4665 9234,4671 "/>
   <polygon class="fil2" points="9245,5161 9257,5171 9271,5165 9279,5178 9294,5177 9298,5192 9313,5195 9311,5210 9325,5218 9319,5233 9329,5244 9319,5256 9325,5270 9311,5278 9313,5293 9298,5297 9294,5312 9279,5310 9271,5324 9257,5317 9245,5328 9234,5317 9219,5324 9212,5310 9196,5312 9193,5297 9178,5293 9179,5278 9166,5270 9172,5256 9162,5244 9172,5233 9166,5218 9179,5210 9178,5195 9193,5192 9196,5177 9212,5178 9219,5165 9234,5171 "/>
   <polygon class="fil2" points="9245,5661 9257,5671 9271,5665 9279,5678 9294,5677 9298,5692 9313,5695 9311,5710 9325,5718 9319,5733 9329,5744 9319,5756 9325,5770 9311,5778 9313,5793 9298,5797 9294,5812 9279,5810 9271,5824 9257,5817 9245,5828 9234,5817 9219,5824 9212,5810 9196,5812 9193,5797 9178,5793 9179,5778 9166,5770 9172,5756 9162,5744 9172,5733 9166,5718 9179,5710 9178,5695 9193,5692 9196,5677 9212,5678 9219,5665 9234,5671 "/>
   <polygon class="fil2" points="9245,6161 9257,6171 9271,6165 9279,6178 9294,6177 9298,6192 9313,6195 9311,6210 9325,6218 9319,6233 9329,6244 9319,6256 9325,6270 9311,6278 9313,6293 9298,6297 9294,6312 9279,6310 9271,6324 9257,6317 9245,6328 9234,6317 9219,6324 9212,6310 9196,6312 9193,6297 9178,6293 9179,6278 9166,6270 9172,6256 9162,6244 9172,6233 9166,6218 9179,6210 9178,6195 9193,6192 9196,6177 9212,6178 9219,6165 9234,6171 "/>
   <polygon class="fil2" points="9245,6661 9257,6671 9271,6665 9279,6678 9294,6677 9298,6692 9313,6695 9311,6710 9325,6718 9319,6733 9329,6744 9319,6756 9325,6770 9311,6778 9313,6793 9298,6797 9294,6812 9279,6810 9271,6824 9257,6817 9245,6828 9234,6817 9219,6824 9212,6810 9196,6812 9193,6797 9178,6793 9179,6778 9166,6770 9172,6756 9162,6744 9172,6733 9166,6718 9179,6710 9178,6695 9193,6692 9196,6677 9212,6678 9219,6665 9234,6671 "/>
   <polygon class="fil2" points="9245,7161 9257,7171 9271,7165 9279,7178 9294,7177 9298,7192 9313,7195 9311,7210 9325,7218 9319,7233 9329,7244 9319,7256 9325,7270 9311,7278 9313,7293 9298,7297 9294,7312 9279,7310 9271,7324 9257,7317 9245,7328 9234,7317 9219,7324 9212,7310 9196,7312 9193,7297 9178,7293 9179,7278 9166,7270 9172,7256 9162,7244 9172,7233 9166,7218 9179,7210 9178,7195 9193,7192 9196,7177 9212,7178 9219,7165 9234,7171 "/>
   <polygon class="fil2" points="9245,7661 9257,7671 9271,7665 9279,7678 9294,7677 9298,7692 9313,7695 9311,7710 9325,7718 9319,7733 9329,7744 9319,7756 9325,7770 9311,7778 9313,7793 9298,7797 9294,7812 9279,7810 9271,7824 9257,7817 9245,7828 9234,7817 9219,7824 9212,7810 9196,7812 9193,7797 9178,7793 9179,7778 9166,7770 9172,7756 9162,7744 9172,7733 9166,7718 9179,7710 9178,7695 9193,7692 9196,7677 9212,7678 9219,7665 9234,7671 "/>
   <polygon class="fil2" points="9245,8161 9257,8171 9271,8165 9279,8178 9294,8177 9298,8192 9313,8195 9311,8210 9325,8218 9319,8233 9329,8244 9319,8256 9325,8270 9311,8278 9313,8293 9298,8297 9294,8312 9279,8310 9271,8324 9257,8317 9245,8328 9234,8317 9219,8324 9212,8310 9196,8312 9193,8297 9178,8293 9179,8278 9166,8270 9172,8256 9162,8244 9172,8233 9166,8218 9179,8210 9178,8195 9193,8192 9196,8177 9212,8178 9219,8165 9234,8171 "/>
   <polygon class="fil2" points="9245,8661 9257,8671 9271,8665 9279,8678 9294,8677 9298,8692 9313,8695 9311,8710 9325,8718 9319,8733 9329,8744 9319,8756 9325,8770 9311,8778 9313,8793 9298,8797 9294,8812 9279,8810 9271,8824 9257,8817 9245,8828 9234,8817 9219,8824 9212,8810 9196,8812 9193,8797 9178,8793 9179,8778 9166,8770 9172,8756 9162,8744 9172,8733 9166,8718 9179,8710 9178,8695 9193,8692 9196,8677 9212,8678 9219,8665 9234,8671 "/>
   <polygon class="fil2" points="9245,9161 9257,9171 9271,9165 9279,9178 9294,9177 9298,9192 9313,9195 9311,9210 9325,9218 9319,9233 9329,9244 9319,9256 9325,9270 9311,9278 9313,9293 9298,9297 9294,9312 9279,9310 9271,9324 9257,9317 9245,9328 9234,9317 9219,9324 9212,9310 9196,9312 9193,9297 9178,9293 9179,9278 9166,9270 9172,9256 9162,9244 9172,9233 9166,9218 9179,9210 9178,9195 9193,9192 9196,9177 9212,9178 9219,9165 9234,9171 "/>
   <polygon class="fil2" points="9245,9661 9257,9671 9271,9665 9279,9678 9294,9677 9298,9692 9313,9695 9311,9710 9325,9718 9319,9733 9329,9744 9319,9756 9325,9770 9311,9778 9313,9793 9298,9797 9294,9812 9279,9810 9271,9824 9257,9817 9245,9828 9234,9817 9219,9824 9212,9810 9196,9812 9193,9797 9178,9793 9179,9778 9166,9770 9172,9756 9162,9744 9172,9733 9166,9718 9179,9710 9178,9695 9193,9692 9196,9677 9212,9678 9219,9665 9234,9671 "/>
   <polygon class="fil2" points="9245,10161 9257,10171 9271,10165 9279,10178 9294,10177 9298,10192 9313,10195 9311,10210 9325,10218 9319,10233 9329,10244 9319,10256 9325,10270 9311,10278 9313,10293 9298,10297 9294,10312 9279,10310 9271,10324 9257,10317 9245,10328 9234,10317 9219,10324 9212,10310 9196,10312 9193,10297 9178,10293 9179,10278 9166,10270 9172,10256 9162,10244 9172,10233 9166,10218 9179,10210 9178,10195 9193,10192 9196,10177 9212,10178 9219,10165 9234,10171 "/>
   <polygon class="fil2" points="9245,10661 9257,10671 9271,10665 9279,10678 9294,10677 9298,10692 9313,10695 9311,10710 9325,10718 9319,10733 9329,10744 9319,10756 9325,10770 9311,10778 9313,10793 9298,10797 9294,10812 9279,10810 9271,10824 9257,10817 9245,10828 9234,10817 9219,10824 9212,10810 9196,10812 9193,10797 9178,10793 9179,10778 9166,10770 9172,10756 9162,10744 9172,10733 9166,10718 9179,10710 9178,10695 9193,10692 9196,10677 9212,10678 9219,10665 9234,10671 "/>
  </g>
 </g>
 <g id="Green">
  <metadata id="CorelCorpID_2Corel-Layer"/>
  <g id="_1776113974832">
   <g>
    <path class="fil3" d="M496 9995l8500 0 0 420c0,44 -36,80 -80,80l-8340 0c-44,0 -80,-36 -80,-80l0 -420z"/>
    <path id="1" class="fil1 str1" d="M496 9995l8500 0 0 420c0,44 -36,80 -80,80l-8340 0c-44,0 -80,-36 -80,-80l0 -420z"/>
   </g>
   <g>
    <polygon class="fil3" points="496,8995 8996,8995 8996,9495 496,9495 "/>
    <polygon id="1" class="fil1 str1" points="496,8995 8996,8995 8996,9495 496,9495 "/>
   </g>
   <g>
    <polygon class="fil3" points="496,7995 8996,7995 8996,8495 496,8495 "/>
    <polygon id="1" class="fil1 str1" points="496,7995 8996,7995 8996,8495 496,8495 "/>
   </g>
   <g>
    <polygon class="fil3" points="496,6995 8996,6995 8996,7495 496,7495 "/>
    <polygon id="1" class="fil1 str1" points="496,6995 8996,6995 8996,7495 496,7495 "/>
   </g>
   <g>
    <polygon class="fil3" points="496,5995 8996,5995 8996,6495 496,6495 "/>
    <polygon id="1" class="fil1 str1" points="496,5995 8996,5995 8996,6495 496,6495 "/>
   </g>
   <g>
    <polygon class="fil3" points="496,4995 8996,4995 8996,5495 496,5495 "/>
    <polygon id="1" class="fil1 str1" points="496,4995 8996,4995 8996,5495 496,5495 "/>
   </g>
   <g>
    <polygon class="fil3" points="496,3995 8996,3995 8996,4495 496,4495 "/>
    <polygon id="1" class="fil1 str1" points="496,3995 8996,3995 8996,4495 496,4495 "/>
   </g>
   <g>
    <polygon class="fil3" points="496,2995 8996,2995 8996,3495 496,3495 "/>
    <polygon id="1" class="fil1 str1" points="496,2995 8996,2995 8996,3495 496,3495 "/>
   </g>
   <g>
    <polygon class="fil3" points="496,1995 8996,1995 8996,2495 496,2495 "/>
    <polygon id="1" class="fil1 str1" points="496,1995 8996,1995 8996,2495 496,2495 "/>
   </g>
   <g>
    <polygon class="fil3" points="496,995 8996,995 8996,1495 496,1495 "/>
    <polygon id="1" class="fil1 str1" points="496,995 8996,995 8996,1495 496,1495 "/>
   </g>
  </g>
  <rect class="fil1 str1" x="496" y="162" width="8500" height="10333" rx="74" ry="92"/>
 </g>
</svg>
